<?xml version="1.0" encoding="UTF-8"?>
<svg xmlns="http://www.w3.org/2000/svg" xmlns:se="https://standardebooks.org/vocab/1.0" version="1.1" viewBox="0 0 1400 440" se:generated-from="67255cdf028af26155c27b2ed2aeea4ea5205ca7">
	<path d="M 155.80856,66.843806 174.14828,66.843806 174.14828,128.60001 191.73944,128.60001 191.73944,66.843806 210.07916,66.843806 210.07916,51.404756 155.80856,51.404756 155.80856,66.843806 Z"/>
	<path d="M 239.0053,97.628336 263.89492,97.628336 263.89492,128.60001 281.48608,128.60001 281.48608,51.404756 263.89492,51.404756 263.89492,82.189286 239.0053,82.189286 239.0053,51.404756 221.41414,51.404756 221.41414,128.60001 239.0053,128.60001 239.0053,97.628336 Z"/>
	<path d="M 341.8532,51.404756 297.68816,51.404756 297.68816,128.60001 341.8532,128.60001 341.8532,113.16096 315.27932,113.16096 315.27932,97.628336 340.73036,97.628336 340.73036,82.189286 315.27932,82.189286 315.27932,66.843806 341.8532,66.843806 341.8532,51.404756 Z"/>
	<path d="M 426.75745,51.404756 410.47627,51.404756 379.31746,128.60001 398.2186,128.60001 403.92637,113.16096 433.30735,113.16096 439.01512,128.60001 457.91626,128.60001 426.75745,51.404756 Z M 427.31887,97.721906 409.91485,97.721906 418.52329,75.265106 418.71043,75.265106 427.31887,97.721906 Z"/>
	<path d="M 465.83594,51.404756 465.83594,128.60001 488.19917,128.60001 C 509.43956,128.60001 527.12429,112.50597 527.12429,89.955596 527.12429,67.498796 509.34599,51.404756 488.19917,51.404756 L 465.83594,51.404756 Z M 483.4271,112.88025 483.4271,67.124516 486.14063,67.124516 C 499.24043,67.124516 508.12958,77.136506 508.12958,90.049166 508.03601,102.96183 499.14686,112.88025 486.14063,112.88025 L 483.4271,112.88025 Z"/>
	<path d="M 556.19957,128.60001 570.04793,128.60001 602.42315,51.404756 582.58631,51.404756 563.12375,102.1197 543.66119,51.404756 523.82435,51.404756 556.19957,128.60001 Z"/>
	<path d="M 654.50785,51.404756 610.34281,51.404756 610.34281,128.60001 654.50785,128.60001 654.50785,113.16096 627.93397,113.16096 627.93397,97.628336 653.38501,97.628336 653.38501,82.189286 627.93397,82.189286 627.93397,66.843806 654.50785,66.843806 654.50785,51.404756 Z"/>
	<path d="M 687.21189,80.692166 687.39903,80.692166 718.08999,128.60001 735.68115,128.60001 735.68115,51.404756 718.08999,51.404756 718.08999,99.312596 717.90285,99.312596 687.21189,51.404756 669.62073,51.404756 669.62073,128.60001 687.21189,128.60001 687.21189,80.692166 Z"/>
	<path d="M 742.49111,66.843806 760.83083,66.843806 760.83083,128.60001 778.42199,128.60001 778.42199,66.843806 796.76171,66.843806 796.76171,51.404756 742.49111,51.404756 742.49111,66.843806 Z"/>
	<path d="M 867.42006,51.404756 849.8289,51.404756 849.8289,96.037646 C 849.8289,108.95031 845.89896,112.69311 837.29052,112.69311 828.68208,112.69311 824.75214,108.95031 824.75214,96.037646 L 824.75214,51.404756 807.16098,51.404756 807.16098,101.184 C 807.16098,120.27228 817.64082,130.00356 837.29052,130.00356 856.94022,130.00356 867.42006,120.27228 867.42006,101.184 L 867.42006,51.404756 Z"/>
	<path d="M 882.72596,51.404756 882.72596,128.60001 900.31712,128.60001 900.31712,98.096186 923.89676,128.60001 946.25999,128.60001 919.68611,96.692636 C 929.13668,93.698396 935.49944,85.932086 935.49944,74.329406 935.49944,59.171066 924.64532,51.404756 910.32911,51.404756 L 882.72596,51.404756 Z M 900.31712,85.651376 900.31712,65.440256 902.37566,65.440256 C 909.01913,65.440256 916.97258,65.908106 916.97258,75.545816 916.97258,85.183526 909.01913,85.651376 902.37566,85.651376 L 900.31712,85.651376 Z"/>
	<path d="M 998.96167,51.404756 954.79663,51.404756 954.79663,128.60001 998.96167,128.60001 998.96167,113.16096 972.38779,113.16096 972.38779,97.628336 997.83883,97.628336 997.83883,82.189286 972.38779,82.189286 972.38779,66.843806 998.96167,66.843806 998.96167,51.404756 Z"/>
	<path d="M 1042.5198,50.001206 C 1030.075,50.001206 1017.3495,59.171066 1017.3495,73.580846 1017.3495,81.627866 1022.7765,88.832756 1032.04,93.417686 1041.2098,98.002616 1049.444,100.52901 1049.444,106.14321 1049.444,113.3481 1042.1455,113.72238 1038.3092,113.72238 1029.7007,113.72238 1019.408,105.02037 1019.408,105.02037 L 1010.6124,119.80443 C 1010.6124,119.80443 1021.5601,130.00356 1039.6191,130.00356 1054.6839,130.00356 1068.7194,123.54723 1068.7194,105.11394 1068.7194,95.008376 1059.2688,87.709916 1050.6604,84.060686 1041.8648,80.317886 1034.5664,77.230076 1034.5664,72.925856 1034.5664,68.715206 1037.7477,66.001676 1043.7362,66.001676 1051.6897,66.001676 1059.3624,71.335166 1059.3624,71.335166 L 1066.4737,57.299666 C 1066.4737,57.299666 1056.5553,50.001206 1042.5198,50.001206 Z"/>
	<path d="M 1109.0653,89.955596 C 1109.0653,112.50597 1125.1594,130.00356 1147.9904,130.00356 1170.1665,130.00356 1186.822,112.50597 1186.822,89.955596 1186.822,67.405226 1169.418,50.001206 1147.9904,50.001206 1126.75,50.001206 1109.0653,67.405226 1109.0653,89.955596 Z M 1128.06,89.955596 C 1128.06,78.446486 1134.4228,66.937376 1147.9904,66.937376 1161.6517,66.937376 1167.8273,78.446486 1167.8273,89.955596 1167.8273,101.46471 1162.0259,112.97382 1147.9904,112.97382 1133.5807,112.97382 1128.06,101.46471 1128.06,89.955596 Z"/>
	<path d="M 1244.2169,51.404756 1199.584,51.404756 1199.584,128.60001 1217.1751,128.60001 1217.1751,97.628336 1242.1583,97.628336 1242.1583,82.189286 1217.1751,82.189286 1217.1751,66.843806 1244.2169,66.843806 1244.2169,51.404756 Z"/>
	<path d="M 204.44537,197.62834 229.33499,197.62834 229.33499,228.60001 246.92615,228.60001 246.92615,151.40476 229.33499,151.40476 229.33499,182.18929 204.44537,182.18929 204.44537,151.40476 186.85421,151.40476 186.85421,228.60001 204.44537,228.60001 204.44537,197.62834 Z"/>
	<path d="M 322.45161,151.40476 304.86045,151.40476 304.86045,196.03765 C 304.86045,208.95031 300.93051,212.69311 292.32207,212.69311 283.71363,212.69311 279.78369,208.95031 279.78369,196.03765 L 279.78369,151.40476 262.19253,151.40476 262.19253,201.184 C 262.19253,220.27228 272.67237,230.00356 292.32207,230.00356 311.97177,230.00356 322.45161,220.27228 322.45161,201.184 L 322.45161,151.40476 Z"/>
	<path d="M 375.91064,212.69311 C 358.22591,212.69311 350.4596,200.34187 350.4596,189.9556 350.4596,179.6629 358.22591,167.31166 375.91064,167.31166 384.89336,167.31166 391.06898,172.08373 391.06898,172.08373 L 398.55458,157.11253 C 398.55458,157.11253 389.94614,150.00121 373.19711,150.00121 351.30173,150.00121 331.37132,167.96665 331.37132,190.14274 331.37132,212.22526 351.3953,230.00356 373.19711,230.00356 389.94614,230.00356 398.55458,222.89224 398.55458,222.89224 L 391.06898,207.92104 C 391.06898,207.92104 384.89336,212.69311 375.91064,212.69311 Z"/>
	<path d="M 480.64749,228.60001 444.71661,187.99063 475.78185,151.40476 454.44789,151.40476 427.96758,182.93785 427.96758,151.40476 410.37642,151.40476 410.37642,228.60001 427.96758,228.60001 427.96758,195.85051 456.41286,228.60001 480.64749,228.60001 Z"/>
	<path d="M 506.61739,151.40476 489.02623,151.40476 489.02623,228.60001 533.19127,228.60001 533.19127,213.16096 506.61739,213.16096 506.61739,151.40476 Z"/>
	<path d="M 591.00716,151.40476 546.84212,151.40476 546.84212,228.60001 591.00716,228.60001 591.00716,213.16096 564.43328,213.16096 564.43328,197.62834 589.88432,197.62834 589.88432,182.18929 564.43328,182.18929 564.43328,166.84381 591.00716,166.84381 591.00716,151.40476 Z"/>
	<path d="M 606.12001,151.40476 606.12001,228.60001 635.40742,228.60001 C 651.40789,228.60001 660.67132,219.80443 660.67132,207.07891 660.67132,194.6341 653.84071,189.30061 644.203,187.61635 650.7529,184.24783 653.84071,178.16578 653.84071,171.05446 653.84071,156.36397 643.36087,151.40476 630.07393,151.40476 L 606.12001,151.40476 Z M 623.71117,181.62787 623.71117,164.97241 625.11472,164.97241 C 632.78746,164.97241 636.81097,167.31166 636.81097,172.83229 636.81097,179.28862 632.69389,181.62787 625.11472,181.62787 L 623.71117,181.62787 Z M 623.71117,215.03236 623.71117,196.78621 629.2318,196.78621 C 637.55953,196.78621 642.14446,199.3126 642.14446,206.42392 642.14446,212.50597 637.55953,215.03236 629.2318,215.03236 L 623.71117,215.03236 Z"/>
	<path d="M 717.60415,151.40476 673.43911,151.40476 673.43911,228.60001 717.60415,228.60001 717.60415,213.16096 691.03027,213.16096 691.03027,197.62834 716.48131,197.62834 716.48131,182.18929 691.03027,182.18929 691.03027,166.84381 717.60415,166.84381 717.60415,151.40476 Z"/>
	<path d="M 732.717,151.40476 732.717,228.60001 750.30816,228.60001 750.30816,198.09619 773.8878,228.60001 796.25103,228.60001 769.67715,196.69264 C 779.12772,193.6984 785.49048,185.93209 785.49048,174.32941 785.49048,159.17107 774.63636,151.40476 760.32015,151.40476 L 732.717,151.40476 Z M 750.30816,185.65138 750.30816,165.44026 752.3667,165.44026 C 759.01017,165.44026 766.96362,165.90811 766.96362,175.54582 766.96362,185.18353 759.01017,185.65138 752.3667,185.65138 L 750.30816,185.65138 Z"/>
	<path d="M 804.78768,151.40476 804.78768,228.60001 822.37884,228.60001 822.37884,198.09619 845.95848,228.60001 868.32171,228.60001 841.74783,196.69264 C 851.1984,193.6984 857.56116,185.93209 857.56116,174.32941 857.56116,159.17107 846.70704,151.40476 832.39083,151.40476 L 804.78768,151.40476 Z M 822.37884,185.65138 822.37884,165.44026 824.43738,165.44026 C 831.08085,165.44026 839.0343,165.90811 839.0343,175.54582 839.0343,185.18353 831.08085,185.65138 824.43738,185.65138 L 822.37884,185.65138 Z"/>
	<path d="M 860.03044,151.40476 888.47572,193.97911 888.47572,228.60001 906.06688,228.60001 906.06688,193.97911 934.51216,151.40476 913.36534,151.40476 897.2713,176.10724 881.17726,151.40476 860.03044,151.40476 Z"/>
	<path d="M 1017.5684,151.40476 972.9355,151.40476 972.9355,228.60001 990.52666,228.60001 990.52666,197.62834 1015.5099,197.62834 1015.5099,182.18929 990.52666,182.18929 990.52666,166.84381 1017.5684,166.84381 1017.5684,151.40476 Z"/>
	<path d="M 1048.5253,151.40476 1030.9341,151.40476 1030.9341,228.60001 1048.5253,228.60001 1048.5253,151.40476 Z"/>
	<path d="M 1082.4004,180.69217 1082.5875,180.69217 1113.2785,228.60001 1130.8696,228.60001 1130.8696,151.40476 1113.2785,151.40476 1113.2785,199.3126 1113.0913,199.3126 1082.4004,151.40476 1064.8092,151.40476 1064.8092,228.60001 1082.4004,228.60001 1082.4004,180.69217 Z"/>
	<path d="M 1164.7053,180.69217 1164.8925,180.69217 1195.5834,228.60001 1213.1746,228.60001 1213.1746,151.40476 1195.5834,151.40476 1195.5834,199.3126 1195.3963,199.3126 1164.7053,151.40476 1147.1142,151.40476 1147.1142,228.60001 1164.7053,228.60001 1164.7053,180.69217 Z"/>
	<path d="M 478.52566,390 492.1989,390 486.81688,329.99775 472.27088,329.99775 458.96129,364.61723 445.6517,329.99775 431.1057,329.99775 425.72368,390 439.39692,390 442.23339,354.43503 442.59704,354.43503 454.88841,389.63635 463.03417,389.63635 475.32554,354.43503 475.68919,354.43503 478.52566,390 Z"/>
	<path d="M 533.15025,329.99775 520.49523,329.99775 496.27614,390 510.9676,390 515.40413,377.99955 538.24135,377.99955 542.67788,390 557.36934,390 533.15025,329.99775 Z M 533.58663,365.9991 520.05885,365.9991 526.75001,348.5439 526.89547,348.5439 533.58663,365.9991 Z"/>
	<path d="M 564.63873,329.99775 564.63873,390 578.31197,390 578.31197,366.29002 596.63993,390 614.02241,390 593.36708,365.19907 C 600.71281,362.87171 605.65845,356.83512 605.65845,347.8166 605.65845,336.03434 597.22177,329.99775 586.09408,329.99775 L 564.63873,329.99775 Z M 578.31197,356.61693 578.31197,340.90725 579.91203,340.90725 C 585.07586,340.90725 591.25791,341.2709 591.25791,348.76209 591.25791,356.25328 585.07586,356.61693 579.91203,356.61693 L 578.31197,356.61693 Z"/>
	<path d="M 676.39161,390 648.46329,358.43518 672.60965,329.99775 656.02721,329.99775 635.44462,354.50776 635.44462,329.99775 621.77138,329.99775 621.77138,390 635.44462,390 635.44462,364.5445 657.55454,390 676.39161,390 Z"/>
	<path d="M 701.57174,341.9982 715.82682,341.9982 715.82682,390 729.50006,390 729.50006,341.9982 743.75514,341.9982 743.75514,329.99775 701.57174,329.99775 701.57174,341.9982 Z"/>
	<path d="M 799.71726,390 814.8451,390 831.93665,329.99775 816.80881,329.99775 806.55388,371.16293 806.19023,371.16293 795.28073,329.99775 784.95307,329.99775 774.04357,371.16293 773.67992,371.16293 763.42499,329.99775 748.22442,329.99775 765.31597,390 780.51654,390 790.1169,356.32601 799.71726,390 Z"/>
	<path d="M 864.01382,329.99775 851.3588,329.99775 827.13971,390 841.83117,390 846.2677,377.99955 869.10492,377.99955 873.54145,390 888.23291,390 864.01382,329.99775 Z M 864.4502,365.9991 850.92242,365.9991 857.61358,348.5439 857.75904,348.5439 864.4502,365.9991 Z"/>
	<path d="M 909.17556,329.99775 895.50232,329.99775 895.50232,390 909.17556,390 909.17556,329.99775 Z"/>
	<path d="M 936.61956,352.76224 936.76502,352.76224 960.62046,390 974.2937,390 974.2937,329.99775 960.62046,329.99775 960.62046,367.23551 960.475,367.23551 936.61956,329.99775 922.94632,329.99775 922.94632,390 936.61956,390 936.61956,352.76224 Z"/>
</svg>
